# xmcd
#
# Track frame offsets:
#  151
#  17619
#  43211
#  63604
#  84847
#  109738
#  136272
#  159503
#  179031
#  195315
#  220079
#  241948
#  268523
#  288640
#
# Disc length: 4023 seconds
#
# Revision: 0
# Processed by: cddbd v1.5.1PL2 Copyright (c) Steve Scherf et al.
# Submitted via: Collectorz.com_Music_Collector 6.11
#
DISCID=c50fb50e
DTITLE=zzz Various Artists, Various Artists - El Congo Brazza Kin
DYEAR=2003
DGENRE=World
TTITLE0=Rumbanella Band - El Congo
TTITLE1=Rumbanella Band - Kellya
TTITLE2=Rumbanella Band - Sey-Sey
TTITLE3=Rumbanella Band - Ngalula
TTITLE4=Wendo Kolosoy and Victoria Bakolo Miziki - Botiakitembe
TTITLE5=Rumbanella Band - Africa Mokili Mobimba
TTITLE6=Wendo Kolosoy and Rumbanella Band - Marie Louise
TTITLE7=Rumbanella Band - Masango Djiya
TTITLE8=Antoine Moundanda - Bounsana
TTITLE9=Rumbanella Band - Naluki Motunguisi
TTITLE10=Rumbanella Band - Clara Badimuene
TTITLE11=Wendo Kolosoy and Antoine Moundanda - Wendo Likembe
TTITLE12=Victoria Bakolo Miziki - Passi
TTITLE13=Rumbanella Band - L'age et l'amour
EXTD=
EXTT0=
EXTT1=
EXTT2=
EXTT3=
EXTT4=
EXTT5=
EXTT6=
EXTT7=
EXTT8=
EXTT9=
EXTT10=
EXTT11=
EXTT12=
EXTT13=
PLAYORDER=
